:FULLY-SPECIFIED
:FORCE-ALL-JOINTS-BE-3DOF
:DEGREES
2039
root -3.08532 14.8884 21.9659 177.006 -4.02448 173.631
lfemur -13.9182 9.62366 -18.5133
ltibia 56.7778 -0 0
lfoot -23.2609 24.8071 0.0690036
ltoes -36.559 0 0
rfemur -37.4846 -7.65484 6.92242
rtibia 48.5176 -0 0
rfoot 18.1908 -6.60486 1.76924
rtoes 5.52051 -0 0
lowerback 14.1169 0.875144 -5.99974
upperback 0.388538 0.252753 1.72484
thorax -7.60311 0.33929 5.16492
lowerneck -3.83192 -3.84692 -6.39427
upperneck 9.2209 -5.01783 0.964477
head 4.02542 -2.78132 0.872244
lclavicle -8.25702e-14 -1.82882e-14 0
lhumerus -39.6006 -14.3869 94.5461
lradius 81.7324 -0 0
lwrist 33.542 0 0
lhand -25.5377 33.8176 -0.00202831
lfingers 7.12502 -0 0
lthumb 0.992263 63.7948 -0.00195898
rclavicle -8.25702e-14 -1.82882e-14 0
rhumerus 17.3481 -12.1645 -85.4656
rradius 37.3168 -0 0
rwrist 43.6426 0 0
rhand -1.41861 -35.7732 -0.0690872
rfingers 7.12502 -0 0
rthumb 24.2284 -64.2347 -0.0569221
2040
root -3.10649 14.884 21.8086 176.662 -5.14713 173.535
lfemur -12.8862 9.11501 -18.7388
ltibia 56.4955 -0 0
lfoot -23.6956 24.7549 0.0654287
ltoes -37.0246 0 0
rfemur -38.0277 -7.82408 6.74644
rtibia 47.6771 -0 0
rfoot 18.9743 -5.861 1.67682
rtoes 5.76052 -0 0
lowerback 14.2138 0.968838 -6.18888
upperback 0.434162 0.328328 1.64615
thorax -7.618 0.377959 5.17541
lowerneck -3.7847 -4.24185 -6.68603
upperneck 9.42895 -5.56487 1.18642
head 4.09099 -3.05568 0.967467
lclavicle -8.25702e-14 -1.82882e-14 0
lhumerus -41.6427 -14.6524 95.8137
lradius 83.7066 -0 0
lwrist 35.8697 0 0
lhand -25.5348 33.5929 -0.00192335
lfingers 7.12502 -0 0
lthumb 0.995133 63.57 -0.00185761
rclavicle -8.25702e-14 -1.82882e-14 0
rhumerus 20.3321 -13.0926 -86.0036
rradius 35.0531 -0 0
rwrist 47.3982 0 0
rhand -1.57086 -35.6237 -0.0655124
rfingers 7.12502 -0 0
rthumb 24.0825 -64.1062 -0.0539769
2041
root -3.12765 14.8797 21.6513 176.319 -6.27034 173.445
lfemur -11.8535 8.61045 -18.9732
ltibia 56.2131 -0 0
lfoot -24.1303 24.7026 0.0614574
ltoes -37.4902 0 0
rfemur -38.5705 -7.99496 6.57202
rtibia 46.8365 -0 0
rfoot 19.7566 -5.11851 1.57424
rtoes 6.00054 -0 0
lowerback 14.3104 1.06285 -6.37786
upperback 0.479681 0.403965 1.56752
thorax -7.63287 0.41663 5.1859
lowerneck -3.73545 -4.63653 -6.97827
upperneck 9.63507 -6.11271 1.40658
head 4.15612 -3.33016 1.0624
lclavicle -8.25702e-14 -1.82882e-14 0
lhumerus -43.6927 -14.8738 97.0918
lradius 85.6808 -0 0
lwrist 38.1975 0 0
lhand -25.5318 33.3681 -0.00180674
lfingers 7.12502 -0 0
lthumb 0.998003 63.3453 -0.00174498
rclavicle -8.25702e-14 -1.82882e-14 0
rhumerus 23.3365 -13.9921 -86.5926
rradius 32.7895 -0 0
rwrist 51.1538 0 0
rhand -1.7231 -35.4743 -0.0615405
rfingers 7.12502 -0 0
rthumb 23.9367 -63.9777 -0.0507046
2042
root -3.14881 14.8753 21.494 175.977 -7.39406 173.362
lfemur -10.8201 8.11014 -19.2164
ltibia 55.9308 -0 0
lfoot -24.565 24.6504 0.0570898
ltoes -37.9558 0 0
rfemur -39.113 -8.16747 6.39916
rtibia 45.9959 -0 0
rfoot 20.5373 -4.37752 1.46156
rtoes 6.24056 -0 0
lowerback 14.4067 1.15718 -6.56669
upperback 0.525097 0.479665 1.48895
thorax -7.64774 0.455304 5.19637
lowerneck -3.68414 -5.03096 -7.27103
upperneck 9.83928 -6.66133 1.625
head 4.22082 -3.60473 1.15705
lclavicle -8.25702e-14 -1.82882e-14 0
lhumerus -45.7492 -15.0509 98.3784
lradius 87.655 -0 0
lwrist 40.5253 0 0
lhand -25.5288 33.1434 -0.00167847
lfingers 7.12502 -0 0
lthumb 1.00087 63.1206 -0.0016211
rclavicle -8.25702e-14 -1.82882e-14 0
rhumerus 26.3622 -14.8602 -87.232
rradius 30.5258 -0 0
rwrist 54.9094 0 0
rhand -1.87533 -35.3249 -0.0571717
rfingers 7.12502 -0 0
rthumb 23.7909 -63.8492 -0.0471052
2043
root -3.16997 14.871 21.3367 175.636 -8.51825 173.285
lfemur -9.78582 7.61426 -19.4684
ltibia 55.6485 -0 0
lfoot -24.9996 24.5982 0.0523262
ltoes -38.4214 0 0
rfemur -39.6553 -8.3416 6.22789
rtibia 45.1553 -0 0
rfoot 21.3166 -3.63818 1.3388
rtoes 6.48057 -0 0
lowerback 14.5027 1.25183 -6.75537
upperback 0.57041 0.555427 1.41044
thorax -7.66261 0.493981 5.20683
lowerneck -3.63078 -5.42512 -7.56433
upperneck 10.0416 -7.21072 1.84169
head 4.28508 -3.87942 1.25142
lclavicle -8.25702e-14 -1.82882e-14 0
lhumerus -47.8108 -15.1831 99.6717
lradius 89.6292 -0 0
lwrist 42.8531 0 0
lhand -25.5258 32.9187 -0.00153855
lfingers 7.12502 -0 0
lthumb 1.00374 62.8959 -0.00148596
rclavicle -8.25702e-14 -1.82882e-14 0
rhumerus 29.4101 -15.6942 -87.9207
rradius 28.2621 -0 0
rwrist 58.665 0 0
rhand -2.02755 -35.1755 -0.0524059
rfingers 7.12502 -0 0
rthumb 23.6451 -63.7206 -0.0431788
2044
root -3.19113 14.8666 21.1794 175.295 -9.64288 173.215
lfemur -8.75049 7.12297 -19.7291
ltibia 55.3661 -0 0
lfoot -25.4343 24.5461 0.0471669
ltoes -38.887 0 0
rfemur -40.1972 -8.51732 6.05822
rtibia 44.3148 -0 0
rfoot 22.0941 -2.90061 1.20601
rtoes 6.72059 -0 0
lowerback 14.5984 1.34679 -6.9439
upperback 0.61562 0.631251 1.33199
thorax -7.67747 0.53266 5.21728
lowerneck -3.57536 -5.81901 -7.85819
upperneck 10.2421 -7.76085 2.0567
head 4.34891 -4.15421 1.34551
lclavicle -8.25702e-14 -1.82882e-14 0
lhumerus -49.876 -15.2704 100.97
lradius 91.6035 -0 0
lwrist 45.1808 0 0
lhand -25.5229 32.694 -0.00138698
lfingers 7.12502 -0 0
lthumb 1.00661 62.6711 -0.00133957
rclavicle -8.25702e-14 -1.82882e-14 0
rhumerus 32.4808 -16.4916 -88.6575
rradius 25.9984 -0 0
rwrist 62.4206 0 0
rhand -2.17976 -35.0262 -0.0472433
rfingers 7.12502 -0 0
rthumb 23.4993 -63.5921 -0.0389253
2045
root -3.2123 14.8623 21.0221 174.955 -10.7679 173.151
lfemur -7.71399 6.63643 -19.9985
ltibia 55.0838 -0 0
lfoot -25.869 24.494 0.0416121
ltoes -39.3526 0 0
rfemur -40.7389 -8.69462 5.89016
rtibia 43.4742 -0 0
rfoot 22.8699 -2.16494 1.06324
rtoes 6.96061 -0 0
lowerback 14.6938 1.44207 -7.13228
upperback 0.660727 0.707137 1.2536
thorax -7.69232 0.571342 5.22773
lowerneck -3.51786 -6.21261 -8.15265
upperneck 10.4408 -8.31173 2.27005
head 4.41231 -4.4291 1.43933
lclavicle -8.25702e-14 -1.82882e-14 0
lhumerus -51.9434 -15.3124 102.271
lradius 93.5777 -0 0
lwrist 47.5086 0 0
lhand -25.5199 32.4692 -0.00122376
lfingers 7.12502 -0 0
lthumb 1.00948 62.4464 -0.00118193
rclavicle -8.25702e-14 -1.82882e-14 0
rhumerus 35.5747 -17.2498 -89.4409
rradius 23.7347 -0 0
rwrist 66.1761 0 0
rhand -2.33195 -34.8768 -0.0416839
rfingers 7.12502 -0 0
rthumb 23.3535 -63.4637 -0.034345
2046
root -3.23346 14.8579 20.8648 174.614 -11.8933 173.094
lfemur -6.67617 6.15481 -20.2764
ltibia 54.8015 -0 0
lfoot -26.3036 24.4419 0.0356623
ltoes -39.8182 0 0
rfemur -41.2803 -8.87348 5.72371
rtibia 42.6336 -0 0
rfoot 23.6437 -1.43131 0.910538
rtoes 7.20062 -0 0
lowerback 14.7888 1.53766 -7.3205
upperback 0.70573 0.783085 1.17526
thorax -7.70716 0.610027 5.23816
lowerneck -3.45829 -6.6059 -8.44773
upperneck 10.6377 -8.86334 2.48178
head 4.47528 -4.7041 1.53287
lclavicle -8.25702e-14 -1.82882e-14 0
lhumerus -54.0114 -15.3091 103.572
lradius 95.5519 -0 0
lwrist 49.8364 0 0
lhand -25.5169 32.2445 -0.0010489
lfingers 7.12502 -0 0
lthumb 1.01235 62.2217 -0.00101305
rclavicle -8.25702e-14 -1.82882e-14 0
rhumerus 38.6917 -17.9663 -90.2695
rradius 21.471 -0 0
rwrist 69.9317 0 0
rhand -2.48413 -34.7275 -0.0357278
rfingers 7.12502 -0 0
rthumb 23.2078 -63.3352 -0.0294377
2047
root -3.25462 14.8535 20.7075 174.273 -13.0189 173.044
lfemur -5.63693 5.67828 -20.5627
ltibia 54.5191 -0 0
lfoot -26.7383 24.3899 0.0293178
ltoes -40.2838 0 0
rfemur -41.8214 -9.05389 5.55891
rtibia 41.7931 -0 0
rfoot 24.4154 -0.69984 0.747955
rtoes 7.44064 -0 0
lowerback 14.8836 1.63356 -7.50858
upperback 0.75063 0.859094 1.09698
thorax -7.72199 0.648714 5.24858
lowerneck -3.39663 -6.99889 -8.74347
upperneck 10.8329 -9.41565 2.69192
head 4.53783 -4.9792 1.62616
lclavicle -8.25702e-14 -1.82882e-14 0
lhumerus -56.0786 -15.2605 104.873
lradius 97.5261 -0 0
lwrist 52.1641 0 0
lhand -25.514 32.0198 -0.000862393
lfingers 7.12502 -0 0
lthumb 1.01521 61.9969 -0.000832916
rclavicle -8.25702e-14 -1.82882e-14 0
rhumerus 41.832 -18.6386 -91.1413
rradius 19.2073 -0 0
rwrist 73.6873 0 0
rhand -2.63629 -34.5781 -0.0293751
rfingers 7.12502 -0 0
rthumb 23.062 -63.2067 -0.0242036
2048
root -3.27578 14.8492 20.5502 173.932 -14.1449 173
lfemur -4.59612 5.207 -20.8575
ltibia 54.2368 -0 0
lfoot -27.1729 24.338 0.0225789
ltoes -40.7494 0 0
rfemur -42.3623 -9.23582 5.39576
rtibia 40.9525 -0 0
rfoot 25.185 0.0293511 0.575548
rtoes 7.68066 -0 0
lowerback 14.978 1.72977 -7.6965
upperback 0.795428 0.935164 1.01877
thorax -7.73682 0.687404 5.25899
lowerneck -3.33286 -7.39156 -9.03989
upperneck 11.0263 -9.96867 2.90049
head 4.59995 -5.2544 1.71918
lclavicle -8.25702e-14 -1.82882e-14 0
lhumerus -58.1434 -15.1667 106.17
lradius 99.5003 -0 0
lwrist 54.4919 0 0
lhand -25.511 31.7951 -0.000664247
lfingers 7.12502 -0 0
lthumb 1.01808 61.7722 -0.000641542
rclavicle -8.25702e-14 -1.82882e-14 0
rhumerus 44.9949 -19.2644 -92.0541
rradius 16.9436 -0 0
rwrist 77.4429 0 0
rhand -2.78843 -34.4288 -0.0226259
rfingers 7.12502 -0 0
rthumb 22.9163 -63.0783 -0.0186427
2049
root -3.29695 14.8448 20.3929 173.59 -15.2711 172.963
lfemur -3.55364 4.74112 -21.1606
ltibia 53.9545 -0 0
lfoot -27.6075 24.286 0.015446
ltoes -41.215 0 0
rfemur -42.9029 -9.41927 5.23426
rtibia 40.1119 -0 0
rfoot 25.9523 0.756142 0.393379
rtoes 7.92068 -0 0
lowerback 15.0722 1.8263 -7.88428
upperback 0.840122 1.0113 0.940605
thorax -7.75165 0.726097 5.26939
lowerneck -3.26699 -7.78389 -9.33702
upperneck 11.218 -10.5224 3.10752
head 4.66166 -5.5297 1.81194
lclavicle -8.25702e-14 -1.82882e-14 0
lhumerus -60.2043 -15.0278 107.463
lradius 101.475 -0 0
lwrist 56.8197 0 0
lhand -25.508 31.5703 -0.000454464
lfingers 7.12502 -0 0
lthumb 1.02094 61.5475 -0.00043893
rclavicle -8.25702e-14 -1.82882e-14 0
rhumerus 48.1798 -19.8414 -93.0057
rradius 14.6799 -0 0
rwrist 81.1985 0 0
rhand -2.94056 -34.2795 -0.0154802
rfingers 7.12502 -0 0
rthumb 22.7705 -62.9498 -0.0127551
2050
root -3.31811 14.8405 20.2356 173.246 -16.3975 172.933
lfemur -2.50936 4.28083 -21.472
ltibia 53.6721 -0 0
lfoot -28.0422 24.2342 0.00791956
ltoes -41.6806 0 0
rfemur -43.4433 -9.60422 5.07445
rtibia 39.2714 -0 0
rfoot 26.7173 1.48042 0.201507
rtoes 8.16069 -0 0
lowerback 15.166 1.92312 -8.07191
upperback 0.884714 1.08749 0.862502
thorax -7.76646 0.764793 5.27979
lowerneck -3.19901 -8.17588 -9.63489
upperneck 11.408 -11.0768 3.31305
head 4.72294 -5.80509 1.90445
lclavicle -8.25702e-14 -1.82882e-14 0
lhumerus -62.26 -14.8443 108.748
lradius 103.449 -0 0
lwrist 59.1474 0 0
lhand -25.5051 31.3456 -0.000233047
lfingers 7.12502 -0 0
lthumb 1.02381 61.3227 -0.000225081
rclavicle -8.25702e-14 -1.82882e-14 0
rhumerus 51.3857 -20.3675 -93.9933
rradius 12.4162 -0 0
rwrist 84.9541 0 0
rhand -3.09266 -34.1303 -0.00793824
rfingers 7.12502 -0 0
rthumb 22.6248 -62.8214 -0.00654083
